<svg width="105" height="20" viewBox="0 0 105 20" fill="none" xmlns="http://www.w3.org/2000/svg">
<path d="M37.5368 19.9979C37.3895 19.9984 37.2457 19.9516 37.126 19.8639L31.4989 15.702L25.8718 19.8639C25.7516 19.9529 25.6068 20.0005 25.4583 20C25.3097 19.9994 25.1653 19.9507 25.0457 19.8609C24.9261 19.771 24.8376 19.6447 24.793 19.5002C24.7485 19.3557 24.7501 19.2004 24.7977 19.0569L26.9923 12.4253L21.3044 8.44592C21.1812 8.35982 21.0882 8.23578 21.0391 8.09193C20.9899 7.94807 20.9871 7.79194 21.0311 7.64635C21.075 7.50076 21.1635 7.37333 21.2835 7.28268C21.4036 7.19204 21.5489 7.14293 21.6982 7.14253H28.7153L30.833 0.493915C30.8786 0.350374 30.9676 0.225262 31.0873 0.136529C31.2069 0.0477952 31.351 0 31.4989 0C31.6468 0 31.7909 0.0477952 31.9106 0.136529C32.0302 0.225262 32.1192 0.350374 32.1648 0.493915L34.2825 7.14476H41.2996C41.4491 7.14469 41.5947 7.19345 41.7151 7.28392C41.8355 7.37439 41.9244 7.50181 41.9686 7.64752C42.0129 7.79322 42.0103 7.94956 41.9611 8.09363C41.912 8.2377 41.8189 8.36194 41.6956 8.44815L36.0055 12.4253L38.1988 19.0551C38.2344 19.1625 38.2444 19.2769 38.228 19.389C38.2116 19.501 38.1693 19.6075 38.1047 19.6996C38.04 19.7917 37.9548 19.8668 37.856 19.9186C37.7573 19.9705 37.6479 19.9977 37.5368 19.9979Z" fill="#E1E500"/>
<path d="M16.5368 19.9979C16.3895 19.9984 16.2457 19.9516 16.126 19.8639L10.4989 15.702L4.87182 19.8639C4.7516 19.9529 4.60677 20.0005 4.45826 20C4.30975 19.9994 4.16525 19.9507 4.04567 19.8609C3.92609 19.771 3.83761 19.6447 3.79303 19.5002C3.74845 19.3557 3.75008 19.2004 3.79768 19.0569L5.99234 12.4253L0.304432 8.44592C0.181228 8.35982 0.0882412 8.23578 0.0390571 8.09193C-0.0101271 7.94807 -0.0129307 7.79195 0.031056 7.64635C0.0750428 7.50076 0.163515 7.37333 0.283545 7.28268C0.403575 7.19204 0.548873 7.14293 0.69821 7.14253H7.71533L9.83299 0.493915C9.8786 0.350374 9.96762 0.225262 10.0873 0.136529C10.2069 0.0477952 10.351 0 10.4989 0C10.6468 0 10.7909 0.0477952 10.9106 0.136529C11.0302 0.225262 11.1192 0.350374 11.1648 0.493915L13.2825 7.14476H20.2996C20.4491 7.14469 20.5947 7.19345 20.7151 7.28392C20.8355 7.37439 20.9244 7.50181 20.9686 7.64752C21.0129 7.79322 21.0103 7.94956 20.9611 8.09363C20.912 8.2377 20.8189 8.36194 20.6956 8.44815L15.0055 12.4253L17.1988 19.0551C17.2344 19.1625 17.2444 19.2769 17.228 19.389C17.2116 19.501 17.1693 19.6075 17.1047 19.6996C17.04 19.7917 16.9548 19.8668 16.856 19.9186C16.7573 19.9705 16.6479 19.9977 16.5368 19.9979Z" fill="#E1E500"/>
<path d="M58.5368 19.9979C58.3895 19.9984 58.2457 19.9516 58.126 19.8639L52.4989 15.702L46.8718 19.8639C46.7516 19.9529 46.6068 20.0005 46.4583 20C46.3097 19.9994 46.1653 19.9507 46.0457 19.8609C45.9261 19.771 45.8376 19.6447 45.793 19.5002C45.7485 19.3557 45.7501 19.2004 45.7977 19.0569L47.9923 12.4253L42.3044 8.44592C42.1812 8.35982 42.0882 8.23578 42.0391 8.09193C41.9899 7.94807 41.9871 7.79194 42.0311 7.64635C42.075 7.50076 42.1635 7.37333 42.2835 7.28268C42.4036 7.19204 42.5489 7.14293 42.6982 7.14253H49.7153L51.833 0.493915C51.8786 0.350374 51.9676 0.225262 52.0873 0.136529C52.2069 0.0477952 52.351 0 52.4989 0C52.6468 0 52.7909 0.0477952 52.9106 0.136529C53.0302 0.225262 53.1192 0.350374 53.1648 0.493915L55.2825 7.14476H62.2996C62.4491 7.14469 62.5947 7.19345 62.7151 7.28392C62.8355 7.37439 62.9244 7.50181 62.9686 7.64752C63.0129 7.79322 63.0103 7.94956 62.9611 8.09363C62.912 8.2377 62.8189 8.36194 62.6956 8.44815L57.0055 12.4253L59.1988 19.0551C59.2344 19.1625 59.2444 19.2769 59.228 19.389C59.2116 19.501 59.1693 19.6075 59.1047 19.6996C59.04 19.7917 58.9548 19.8668 58.856 19.9186C58.7573 19.9705 58.6479 19.9977 58.5368 19.9979Z" fill="#E1E500"/>
<path d="M79.5368 19.9979C79.3895 19.9984 79.2457 19.9516 79.126 19.8639L73.4989 15.702L67.8718 19.8639C67.7516 19.9529 67.6068 20.0005 67.4583 20C67.3097 19.9994 67.1653 19.9507 67.0457 19.8609C66.9261 19.771 66.8376 19.6447 66.793 19.5002C66.7485 19.3557 66.7501 19.2004 66.7977 19.0569L68.9923 12.4253L63.3044 8.44592C63.1812 8.35982 63.0882 8.23578 63.0391 8.09193C62.9899 7.94807 62.9871 7.79194 63.0311 7.64635C63.075 7.50076 63.1635 7.37333 63.2835 7.28268C63.4036 7.19204 63.5489 7.14293 63.6982 7.14253H70.7153L72.833 0.493915C72.8786 0.350374 72.9676 0.225262 73.0873 0.136529C73.2069 0.0477952 73.351 0 73.4989 0C73.6468 0 73.7909 0.0477952 73.9106 0.136529C74.0302 0.225262 74.1192 0.350374 74.1648 0.493915L76.2825 7.14476H83.2996C83.4491 7.14469 83.5947 7.19345 83.7151 7.28392C83.8355 7.37439 83.9244 7.50181 83.9686 7.64752C84.0129 7.79322 84.0103 7.94956 83.9611 8.09363C83.912 8.2377 83.8189 8.36194 83.6956 8.44815L78.0055 12.4253L80.1988 19.0551C80.2344 19.1625 80.2444 19.2769 80.228 19.389C80.2116 19.501 80.1693 19.6075 80.1047 19.6996C80.04 19.7917 79.9548 19.8668 79.856 19.9186C79.7573 19.9705 79.6479 19.9977 79.5368 19.9979Z" fill="#E1E500"/>
<path d="M100.537 19.9979C100.389 19.9984 100.246 19.9516 100.126 19.8639L94.4989 15.702L88.8718 19.8639C88.7516 19.9529 88.6068 20.0005 88.4583 20C88.3097 19.9994 88.1653 19.9507 88.0457 19.8609C87.9261 19.771 87.8376 19.6447 87.793 19.5002C87.7485 19.3557 87.7501 19.2004 87.7977 19.0569L89.9923 12.4253L84.3044 8.44592C84.1812 8.35982 84.0882 8.23578 84.0391 8.09193C83.9899 7.94807 83.9871 7.79194 84.0311 7.64635C84.075 7.50076 84.1635 7.37333 84.2835 7.28268C84.4036 7.19204 84.5489 7.14293 84.6982 7.14253H91.7153L93.833 0.493915C93.8786 0.350374 93.9676 0.225262 94.0873 0.136529C94.2069 0.0477952 94.351 0 94.4989 0C94.6468 0 94.7909 0.0477952 94.9106 0.136529C95.0302 0.225262 95.1192 0.350374 95.1648 0.493915L97.2825 7.14476H104.3C104.449 7.14469 104.595 7.19345 104.715 7.28392C104.836 7.37439 104.924 7.50181 104.969 7.64752C105.013 7.79322 105.01 7.94956 104.961 8.09363C104.912 8.2377 104.819 8.36194 104.696 8.44815L99.0055 12.4253L101.199 19.0551C101.234 19.1625 101.244 19.2769 101.228 19.389C101.212 19.501 101.169 19.6075 101.105 19.6996C101.04 19.7917 100.955 19.8668 100.856 19.9186C100.757 19.9705 100.648 19.9977 100.537 19.9979Z" fill="#E1E500"/>
</svg>
