<svg width="127" height="24" viewBox="0 0 127 24" fill="none" xmlns="http://www.w3.org/2000/svg">
<path d="M0.407656 18V1.08H4.84766V8.328H4.89566L11.3757 1.08H16.5597L8.35166 9.984V8.232L17.0157 18H11.6637L4.89566 10.368H4.84766V18H0.407656ZM19.7972 18L14.7332 5.808H19.0772L22.1012 13.824H21.5012L24.4772 5.808H27.1892L30.1892 13.824H29.6852L32.6612 5.808H36.7412L31.7252 18H28.1492L24.8612 9.72H26.4932L23.3732 18H19.7972ZM37.8786 18V5.808H42.1506V18H37.8786ZM37.7826 4.08V0.24H42.2706V4.08H37.7826ZM44.7927 18V0.335999H49.0647V10.728H49.1127L53.1927 5.808H58.2327L52.7127 12.336V10.872L58.4487 18H53.2887L49.1127 12.888H49.0647V18H44.7927ZM64.6095 18.192C63.4735 18.192 62.4815 17.944 61.6335 17.448C60.7855 16.936 60.1295 16.208 59.6655 15.264C59.2175 14.32 58.9935 13.2 58.9935 11.904C58.9935 10.608 59.2255 9.504 59.6895 8.592C60.1535 7.664 60.8015 6.96 61.6335 6.48C62.4815 6 63.4735 5.76 64.6095 5.76C65.3775 5.76 66.1135 5.904 66.8175 6.192C67.5375 6.48 68.1295 6.88 68.5935 7.392L67.9935 8.472C67.4975 7.976 66.9615 7.616 66.3855 7.392C65.8095 7.152 65.2335 7.032 64.6575 7.032C63.3455 7.032 62.3215 7.448 61.5855 8.28C60.8495 9.112 60.4815 10.328 60.4815 11.928C60.4815 13.528 60.8495 14.768 61.5855 15.648C62.3215 16.512 63.3455 16.944 64.6575 16.944C65.2015 16.944 65.7615 16.832 66.3375 16.608C66.9295 16.384 67.4815 16.016 67.9935 15.504L68.5935 16.584C68.1135 17.096 67.5055 17.496 66.7695 17.784C66.0495 18.056 65.3295 18.192 64.6095 18.192ZM75.9934 18.192C74.9054 18.192 73.9614 17.944 73.1614 17.448C72.3614 16.952 71.7454 16.24 71.3134 15.312C70.8814 14.384 70.6654 13.272 70.6654 11.976C70.6654 10.68 70.8814 9.576 71.3134 8.664C71.7614 7.736 72.3854 7.024 73.1854 6.528C73.9854 6.016 74.9214 5.76 75.9934 5.76C77.0974 5.76 78.0494 6.048 78.8494 6.624C79.6654 7.2 80.2014 7.984 80.4574 8.976H80.1694L80.4094 5.976H81.8254C81.7774 6.44 81.7294 6.896 81.6814 7.344C81.6494 7.792 81.6334 8.232 81.6334 8.664V18H80.1694V15H80.4334C80.1774 15.992 79.6414 16.776 78.8254 17.352C78.0254 17.912 77.0814 18.192 75.9934 18.192ZM76.1854 16.944C77.4174 16.944 78.3934 16.52 79.1134 15.672C79.8334 14.824 80.1934 13.592 80.1934 11.976C80.1934 10.36 79.8334 9.128 79.1134 8.28C78.3934 7.432 77.4174 7.008 76.1854 7.008C74.9534 7.008 73.9694 7.432 73.2334 8.28C72.5134 9.128 72.1534 10.36 72.1534 11.976C72.1534 13.592 72.5134 14.824 73.2334 15.672C73.9694 16.52 74.9534 16.944 76.1854 16.944ZM85.6131 18V0.335999H87.0771V18H85.6131ZM91.074 18V0.335999H92.538V18H91.074ZM96.535 18V5.976H97.999V18H96.535ZM96.295 3.024V1.2H98.263V3.024H96.295ZM101.996 18V8.664C101.996 8.232 101.98 7.792 101.948 7.344C101.916 6.896 101.868 6.44 101.804 5.976H103.244L103.46 8.736H103.172C103.524 7.776 104.092 7.04 104.876 6.528C105.66 6.016 106.572 5.76 107.612 5.76C109.036 5.76 110.108 6.136 110.828 6.888C111.564 7.64 111.932 8.816 111.932 10.416V18H110.468V10.536C110.468 9.304 110.22 8.416 109.724 7.872C109.228 7.312 108.46 7.032 107.42 7.032C106.204 7.032 105.236 7.4 104.516 8.136C103.812 8.872 103.46 9.864 103.46 11.112V18H101.996ZM121.055 23.352C120.047 23.352 119.103 23.216 118.223 22.944C117.359 22.672 116.583 22.264 115.895 21.72L116.423 20.592C116.935 20.96 117.423 21.248 117.887 21.456C118.367 21.68 118.863 21.84 119.375 21.936C119.887 22.048 120.439 22.104 121.031 22.104C122.247 22.104 123.167 21.776 123.791 21.12C124.415 20.48 124.727 19.552 124.727 18.336V14.52H124.991C124.735 15.528 124.199 16.32 123.383 16.896C122.567 17.456 121.607 17.736 120.503 17.736C119.399 17.736 118.439 17.496 117.623 17.016C116.823 16.52 116.199 15.824 115.751 14.928C115.319 14.016 115.103 12.952 115.103 11.736C115.103 10.52 115.319 9.464 115.751 8.568C116.199 7.672 116.823 6.984 117.623 6.504C118.439 6.008 119.399 5.76 120.503 5.76C121.607 5.76 122.567 6.048 123.383 6.624C124.199 7.184 124.735 7.976 124.991 9L124.727 8.736L124.943 5.976H126.383C126.319 6.44 126.271 6.896 126.239 7.344C126.207 7.792 126.191 8.232 126.191 8.664V18.12C126.191 19.848 125.751 21.152 124.871 22.032C124.007 22.912 122.735 23.352 121.055 23.352ZM120.671 16.488C121.919 16.488 122.903 16.072 123.623 15.24C124.359 14.408 124.727 13.24 124.727 11.736C124.727 10.248 124.359 9.088 123.623 8.256C122.903 7.424 121.919 7.008 120.671 7.008C119.423 7.008 118.431 7.424 117.695 8.256C116.959 9.088 116.591 10.248 116.591 11.736C116.591 13.24 116.959 14.408 117.695 15.24C118.431 16.072 119.423 16.488 120.671 16.488Z" fill="white"/>
</svg>
