<svg width="148" height="28" viewBox="0 0 148 28" fill="none" xmlns="http://www.w3.org/2000/svg">
<path d="M0.82 21V1.26H6V9.716H6.056L13.616 1.26H19.664L10.088 11.648V9.604L20.196 21H13.952L6.056 12.096H6V21H0.82ZM23.4412 21L17.5332 6.776H22.6012L26.1292 16.128H25.4292L28.9012 6.776H32.0652L35.5652 16.128H34.9772L38.4492 6.776H43.2092L37.3572 21H33.1852L29.3492 11.34H31.2532L27.6132 21H23.4412ZM44.5361 21V6.776H49.5201V21H44.5361ZM44.4241 4.76V0.28H49.6601V4.76H44.4241ZM52.6025 21V0.391998H57.5865V12.516H57.6425L62.4025 6.776H68.2825L61.8425 14.392V12.684L68.5345 21H62.5145L57.6425 15.036H57.5865V21H52.6025ZM75.7222 21.224C74.3969 21.224 73.2395 20.9347 72.2502 20.356C71.2609 19.7587 70.4955 18.9093 69.9542 17.808C69.4315 16.7067 69.1702 15.4 69.1702 13.888C69.1702 12.376 69.4409 11.088 69.9822 10.024C70.5235 8.94133 71.2795 8.12 72.2502 7.56C73.2395 7 74.3969 6.72 75.7222 6.72C76.6182 6.72 77.4769 6.888 78.2982 7.224C79.1382 7.56 79.8289 8.02667 80.3702 8.624L79.6702 9.884C79.0915 9.30533 78.4662 8.88533 77.7942 8.624C77.1222 8.344 76.4502 8.204 75.7782 8.204C74.2475 8.204 73.0529 8.68933 72.1942 9.66C71.3355 10.6307 70.9062 12.0493 70.9062 13.916C70.9062 15.7827 71.3355 17.2293 72.1942 18.256C73.0529 19.264 74.2475 19.768 75.7782 19.768C76.4129 19.768 77.0662 19.6373 77.7382 19.376C78.4289 19.1147 79.0729 18.6853 79.6702 18.088L80.3702 19.348C79.8102 19.9453 79.1009 20.412 78.2422 20.748C77.4022 21.0653 76.5622 21.224 75.7222 21.224ZM89.0034 21.224C87.734 21.224 86.6327 20.9347 85.6994 20.356C84.766 19.7773 84.0474 18.9467 83.5434 17.864C83.0394 16.7813 82.7874 15.484 82.7874 13.972C82.7874 12.46 83.0394 11.172 83.5434 10.108C84.066 9.02533 84.794 8.19467 85.7274 7.616C86.6607 7.01867 87.7527 6.72 89.0034 6.72C90.2914 6.72 91.402 7.056 92.3354 7.728C93.2874 8.4 93.9127 9.31467 94.2114 10.472H93.8754L94.1554 6.972H95.8074C95.7514 7.51333 95.6954 8.04533 95.6394 8.568C95.602 9.09067 95.5834 9.604 95.5834 10.108V21H93.8754V17.5H94.1834C93.8847 18.6573 93.2594 19.572 92.3074 20.244C91.374 20.8973 90.2727 21.224 89.0034 21.224ZM89.2274 19.768C90.6647 19.768 91.8034 19.2733 92.6434 18.284C93.4834 17.2947 93.9034 15.8573 93.9034 13.972C93.9034 12.0867 93.4834 10.6493 92.6434 9.66C91.8034 8.67067 90.6647 8.176 89.2274 8.176C87.79 8.176 86.642 8.67067 85.7834 9.66C84.9434 10.6493 84.5234 12.0867 84.5234 13.972C84.5234 15.8573 84.9434 17.2947 85.7834 18.284C86.642 19.2733 87.79 19.768 89.2274 19.768ZM100.226 21V0.391998H101.934V21H100.226ZM106.597 21V0.391998H108.305V21H106.597ZM112.969 21V6.972H114.677V21H112.969ZM112.689 3.528V1.4H114.985V3.528H112.689ZM119.34 21V10.108C119.34 9.604 119.321 9.09067 119.284 8.568C119.246 8.04533 119.19 7.51333 119.116 6.972H120.796L121.048 10.192H120.712C121.122 9.072 121.785 8.21333 122.7 7.616C123.614 7.01867 124.678 6.72 125.892 6.72C127.553 6.72 128.804 7.15867 129.644 8.036C130.502 8.91333 130.932 10.2853 130.932 12.152V21H129.224V12.292C129.224 10.8547 128.934 9.81867 128.356 9.184C127.777 8.53067 126.881 8.204 125.668 8.204C124.249 8.204 123.12 8.63333 122.28 9.492C121.458 10.3507 121.048 11.508 121.048 12.964V21H119.34ZM141.575 27.244C140.399 27.244 139.298 27.0853 138.271 26.768C137.263 26.4507 136.358 25.9747 135.555 25.34L136.171 24.024C136.768 24.4533 137.338 24.7893 137.879 25.032C138.439 25.2933 139.018 25.48 139.615 25.592C140.212 25.7227 140.856 25.788 141.547 25.788C142.966 25.788 144.039 25.4053 144.767 24.64C145.495 23.8933 145.859 22.8107 145.859 21.392V16.94H146.167C145.868 18.116 145.243 19.04 144.291 19.712C143.339 20.3653 142.219 20.692 140.931 20.692C139.643 20.692 138.523 20.412 137.571 19.852C136.638 19.2733 135.91 18.4613 135.387 17.416C134.883 16.352 134.631 15.1107 134.631 13.692C134.631 12.2733 134.883 11.0413 135.387 9.996C135.91 8.95067 136.638 8.148 137.571 7.588C138.523 7.00933 139.643 6.72 140.931 6.72C142.219 6.72 143.339 7.056 144.291 7.728C145.243 8.38133 145.868 9.30533 146.167 10.5L145.859 10.192L146.111 6.972H147.791C147.716 7.51333 147.66 8.04533 147.623 8.568C147.586 9.09067 147.567 9.604 147.567 10.108V21.14C147.567 23.156 147.054 24.6773 146.027 25.704C145.019 26.7307 143.535 27.244 141.575 27.244ZM141.127 19.236C142.583 19.236 143.731 18.7507 144.571 17.78C145.43 16.8093 145.859 15.4467 145.859 13.692C145.859 11.956 145.43 10.6027 144.571 9.632C143.731 8.66133 142.583 8.176 141.127 8.176C139.671 8.176 138.514 8.66133 137.655 9.632C136.796 10.6027 136.367 11.956 136.367 13.692C136.367 15.4467 136.796 16.8093 137.655 17.78C138.514 18.7507 139.671 19.236 141.127 19.236Z" fill="#1E71FF"/>
</svg>
